Patient4_TMGait_0pt5_02_right_05_EMG.mot
version=1
nRows=13
nColumns=33
inDegrees=no
endheader
time	1LAddLong	2LGlutMax	3LGlutMed	4LIliopsoas	5LSemiMemb	6LBicFemLong	7LRecFem	8LVastMed	9LVastLat	10LGasMed	11LTibAnt	12lTibPost	13LPeroneusLong	14LSol	15LExtDigLong	16LFlexDigLong	17RAddLong	18RGlutMax	19RGlutMed	20RIliopsoas	21RSemiMemb	22RBicFemLong	23RRecFem	24RVastMed	25RVastLat	26RGasMed	27RTibAnt	28RTibPost	29RPeroneusLong	30RSol	31RExtDigLong	32RFlexDigLong
7.385	0.01358	-0.01709	0.019531	-0.001068	-0.00473	-0.54275	-0.093842	-0.003662	-0.026093	-0.004272	-0.016327	0.00351	-0.001221	0.009308	-0.012054	0.006866	0.10468	-0.12924	0.66406	-0.046997	0.044098	-0.12909	-0.35812	-0.15228	-0.015259	0.001831	-0.53223	-0.003815	0.19363	-0.21408	-0.001984	-0.009308
7.386	0.003967	-0.061035	-0.008087	0.002289	-0.017242	-0.47943	-0.057068	0.003052	0.02533	-0.001678	-0.014801	0.004883	-0.014191	-0.000153	-0.015259	0.003967	0.075684	-0.1358	0.74554	-0.055389	-0.19333	0.075531	-0.40436	-0.046844	0.013428	0.002136	-0.049744	-0.00351	0.20966	-0.002441	-0.004883	-0.008087
7.387	-0.00824	-0.086365	-0.049744	0.004883	0.042114	-0.39963	-0.055389	0.009766	0.053711	-0.009155	-0.031281	0.007324	-0.028534	0.010071	-0.022583	-0.001068	0.011444	-0.16449	0.58975	0.039215	-0.51743	0.29556	-0.37659	-0.023041	0.024872	0.013733	0.37491	-0.004425	0.42526	0.10468	-0.004883	-0.007935
7.388	-0.006256	-0.15411	-0.10193	0.002899	0.063171	-0.25803	0.017548	0.013428	0.05127	-0.003662	-0.01358	0.003662	-0.00946	0.024567	0.000763	-0.002136	-0.080566	-0.13443	-0.09201	0.1265	-0.1683	0.30594	-0.33417	0.044098	0.010376	0.002136	0.88318	-0.006866	0.22156	0.034943	-0.002441	-0.003967
7.389	-0.017395	-0.19623	-0.15472	0.031891	-0.022583	-0.093079	0.046844	0.014191	0.008087	-0.005188	-0.020294	0.009613	-0.015259	0.025787	0.007477	0.005951	-0.11398	-0.088501	-0.18127	0.092163	-0.067444	0.18692	-0.35202	0.052795	0.043488	-0.048523	0.87311	-0.01236	-0.13168	-0.062408	-0.004272	-0.011292
7.39	-0.016785	-0.20111	-0.12924	0.002594	-0.022278	-0.010986	0.10162	0.007935	0.031586	0.008087	-0.026093	0.018311	-0.031738	0.020142	0.045013	-0.005035	-0.080872	-0.082245	-0.23666	0.076294	0.090942	0.018921	-0.34271	0.039673	0.041809	-0.052795	0.19898	-0.014343	-0.17471	-0.14801	-0.006409	-0.014801
7.391	-0.012207	-0.16541	-0.11444	-0.020599	0.031891	-0.009613	0.16205	0.003357	-0.018921	0.007172	-0.018005	-0.002899	-0.023346	0.005493	0.032196	0.00061	-0.085907	-0.052948	-0.17425	0.060425	-0.027161	0.038605	-0.33615	0.081635	0.031281	-0.033875	-0.54413	0.001831	0.052948	-0.17258	-0.001831	-0.011139
7.392	-0.041046	-0.12177	-0.096436	-0.008545	-0.016327	0.052795	0.13534	0.008087	-0.098877	0.018005	-0.014343	-0.005493	0.019836	0.035858	-0.001221	0.003967	-0.086212	-0.06897	0.38086	0.001526	-0.040436	0.17166	-0.37872	0.15289	0.019531	-0.010681	-0.65613	-0.015564	0.23224	-0.24994	-0.003662	0.002289
7.393	-0.029602	-0.10651	-0.1033	-0.016632	-0.10254	0.065002	0.085907	0.005341	-0.12192	0.016479	-0.092468	-0.006561	0.064087	0.015717	0.015106	-0.003052	-0.063477	-0.051727	0.37994	-0.055847	0.028229	0.27817	-0.3595	0.11383	0.009766	-0.008087	-0.52551	-0.020142	0.094604	-0.32867	0.001984	-0.021362
7.394	-0.033112	-0.099182	-0.12146	-0.016937	-0.11414	0.042725	0.003815	-0.010529	-0.10147	0.012512	-0.12344	0.010681	0.065765	0.025177	0.017853	-0.006714	-0.007477	-0.050201	-0.27786	-0.014801	0.039673	0.065765	-0.35187	0.007935	-0.036469	-0.001984	-0.32105	-0.032043	0.025635	-0.51804	-0.001831	-0.029755
7.395	-0.010376	-0.059814	-0.1059	-0.01709	-0.10346	0.042114	-0.067444	-0.015564	-0.081024	-0.00351	-0.11093	0.014648	0.11246	0.053558	0.006714	0.003204	0.027771	-0.055847	-0.036163	0.000153	0.31342	-0.032043	-0.38986	-0.013885	-0.036011	0.002441	0.023346	-0.050659	0.12238	-0.73944	-0.002441	-0.032349
7.396	0.009613	-0.053101	-0.044556	0.015564	-0.061646	0.016022	-0.11154	-0.017853	-0.038452	-0.020447	-0.061951	0.010071	0.050049	0.0737	-0.006714	0.001831	0.045166	-0.069733	0.5098	-0.020599	0.21057	-0.14862	-0.38208	-0.020294	-0.024872	-0.003967	0.18219	0.020447	0.13825	-0.78735	-0.000916	-0.036774
7.397	0.030518	-0.079346	-0.045166	0.029449	0.13489	-0.059814	-0.15808	-0.01297	0.00824	-0.007629	0.015717	0.00351	0.005798	0.053558	-0.10147	0.001068	0.003052	-0.087738	0.1535	0.063934	0.13245	-0.2385	-0.43762	0.071106	-0.02182	-0.007782	-0.14267	0.12894	0.025177	-0.39169	-0.002747	-0.041809
